<svg width="94" height="50" viewBox="0 0 94 50" fill="none" xmlns="http://www.w3.org/2000/svg">
<path d="M9.98531 31.8838C11.525 31.8794 13.0641 31.86 14.6038 31.8263C14.6038 33.9831 14.4998 36.1975 14.8345 38.315C14.9642 39.1338 15.2499 39.5488 15.9888 39.5263C16.6355 39.5063 17.009 39.1206 17.1431 38.29C17.3198 37.1944 17.3681 36.0588 17.3737 34.965C17.3819 33.5331 17.3919 32.3663 16.3579 31.27C15.0287 29.8625 13.7046 28.45 12.3861 27.0319C10.3901 24.9 10.0217 22.1506 9.98468 19.3556C9.96338 17.7425 10.0511 15.9881 10.6772 14.4719C11.6485 12.3331 13.7221 11.3781 15.9882 11.3375C18.0486 11.3006 20.5628 11.9944 21.3455 14.1475C22.3457 16.8988 21.9904 20.3613 21.9922 23.2319C20.4532 23.3163 18.9141 23.3894 17.3737 23.45C17.3768 21.0631 17.5818 18.5463 17.2352 16.2238C17.1143 15.4125 16.6349 15.1869 15.9882 15.2069C15.3414 15.2269 14.8614 15.5738 14.7411 16.3013C14.5813 17.2681 14.5932 18.305 14.6026 19.2988C14.6183 20.9688 14.6508 22.4944 15.8497 23.7788C17.1838 25.1894 18.5236 26.595 19.8678 27.9963C21.5974 29.8119 21.9647 31.97 21.9922 34.3794C22.0142 36.2763 21.9114 38.3381 21.207 40.1344C20.3297 42.3725 18.2724 43.2963 15.9882 43.3969C13.7879 43.4938 11.5307 42.5313 10.6308 40.4513C9.53411 37.9169 9.98343 34.58 9.98406 31.885L9.98531 31.8838Z" fill="#332E47"/>
<path d="M24.3015 11.2988C26.273 11.1675 28.2432 11.02 30.2129 10.8594C31.6674 10.7131 33.5254 10.785 34.6465 11.8513C36.9019 14.185 36.3091 19.0313 36.3091 21.9206C36.3091 24.9006 36.8298 29.1706 35.0156 31.8075C34.1439 33.0269 32.5992 33.6375 31.1359 33.72C30.2492 33.7956 29.8055 33.8319 28.9188 33.9025V42.2856C27.3797 42.4056 25.8406 42.5175 24.3003 42.62V11.2988H24.3015ZM29.9359 30.2281C30.7211 30.1638 31.198 29.8844 31.3678 29.1869C31.8917 27.0294 31.6912 24.5825 31.6912 22.3419C31.6912 20.1238 31.7852 17.8331 31.4606 15.6369C31.3666 15.0019 30.9523 14.6675 30.075 14.74C29.6131 14.7781 29.3825 14.7969 28.9207 14.8331V30.31C29.3274 30.2775 29.5304 30.2613 29.9365 30.2281H29.9359Z" fill="#332E47"/>
<path d="M38.8489 10.0656C40.3887 9.91188 41.9284 9.755 43.4675 9.59625V40.9181C41.9284 41.0769 40.3887 41.2338 38.8489 41.3875V10.0656Z" fill="#332E47"/>
<path d="M46.4692 9.28374C47.7313 9.15187 48.994 9.01999 50.2562 8.88874C52.0892 14.8437 53.9215 20.7987 55.752 26.7544C55.8072 26.7306 55.8354 26.7187 55.8905 26.6944C55.4262 22.3869 54.8133 18.0137 54.7819 13.6769V8.42562C56.321 8.27249 57.8608 8.12312 59.4005 7.97812V39.3C58.1377 39.4175 56.8756 39.54 55.6135 39.6644C53.783 33.7087 51.9507 27.7544 50.1177 21.7994C50.0625 21.8237 50.0343 21.8356 49.9792 21.86C50.4467 26.15 51.0577 30.5069 51.0877 34.8262V40.1231C49.548 40.2825 48.0089 40.4431 46.4692 40.6044V9.28374Z" fill="#332E47"/>
<path d="M62.1716 7.72874C65.0944 7.47686 68.0184 7.25186 70.9468 7.06561V10.935C69.5606 11.0225 68.1751 11.1181 66.7901 11.2206V20.7094C68.0215 20.6187 69.2529 20.5325 70.485 20.4525V24.0456C69.2529 24.1256 68.0215 24.2119 66.7901 24.3025V34.8044C68.1751 34.7019 69.5606 34.6062 70.9468 34.5187V38.3881C68.019 38.5737 65.095 38.7987 62.1716 39.0512V7.72874Z" fill="#332E47"/>
<path d="M72.3317 27.0662C73.8708 26.9819 75.4099 26.9087 76.9503 26.8481C76.9503 29.0037 76.8463 31.2175 77.1815 33.3344C77.3112 34.1519 77.597 34.5619 78.3358 34.5394C78.9826 34.5194 79.3561 34.1387 79.4902 33.3094C79.6675 32.215 79.7151 31.08 79.7214 29.9869C79.7295 28.5537 79.7383 27.3825 78.7056 26.2831C77.3864 24.8856 76.0623 23.4937 74.7338 22.1056C72.7215 20.0256 72.3687 17.3006 72.3324 14.5381C72.3111 12.9112 72.4044 11.15 73.0248 9.6175C73.9949 7.44937 76.0103 6.39312 78.3358 6.35C80.4446 6.31062 82.9161 7.12 83.6932 9.29562C84.684 12.0687 84.3381 15.5244 84.3399 18.4144C82.8002 18.4187 81.2611 18.4381 79.7214 18.4719C79.7245 16.0844 79.9288 13.5675 79.5829 11.2437C79.462 10.4306 78.9826 10.1994 78.3358 10.2194C77.6891 10.2394 77.2091 10.5919 77.0888 11.3212C76.929 12.2887 76.9409 13.3256 76.9503 14.3206C76.966 15.9894 76.9985 17.5094 78.1973 18.7919C79.5422 20.2162 80.882 21.645 82.2155 23.08C83.9288 24.9419 84.3117 27.1256 84.3399 29.5625C84.3619 31.4444 84.2654 33.4975 83.5547 35.2756C82.6686 37.4931 80.5812 38.3131 78.3358 38.41C76.1763 38.5031 73.889 37.6581 72.9785 35.6C71.8693 33.0925 72.3311 29.7406 72.3317 27.0681V27.0662Z" fill="#332E47"/>
</svg>
