<svg width="90" height="27" viewBox="0 0 90 27" fill="none" xmlns="http://www.w3.org/2000/svg">
<g clip-path="url(#clip0_6_196)">
<path d="M21.7507 8.80626C20.5573 7.03435 18.5617 5.97717 16.4117 5.97717C14.3924 5.97717 12.5896 6.90607 11.4132 8.35466C10.2004 6.85753 8.37156 5.97717 6.41261 5.97717C2.87624 5.97717 -0.000305176 8.82359 -0.000305176 12.3222V22.87H2.82523V12.3222C2.82523 10.3655 4.43404 8.77326 6.41216 8.77326C7.61455 8.77326 8.73151 9.36509 9.39979 10.3573C9.79188 10.9391 9.99924 11.6186 9.99924 12.3219V22.8697H12.8252V12.3222C12.8252 10.3655 14.434 8.77326 16.4116 8.77326C17.6144 8.77326 18.7312 9.36509 19.3992 10.3573C19.7916 10.9391 19.9983 11.6186 19.9983 12.3219V22.8697H22.8236V12.3222C22.8236 11.0655 22.4523 9.8491 21.749 8.80671" fill="#E64280"/>
<path d="M71.645 1.72204C71.645 2.60418 70.9221 3.31802 70.0317 3.31802C69.1405 3.31802 68.4184 2.60418 68.4184 1.72204C68.4184 0.840484 69.1405 0.125595 70.0317 0.125595C70.9221 0.125595 71.645 0.84093 71.645 1.72233M68.6186 5.88592H71.4443V22.7927H68.6186V5.88607V5.88592ZM82.1173 20.0881C78.9057 20.0881 76.2932 17.503 76.2932 14.3266C76.2932 11.1501 78.9057 8.56507 82.1158 8.56507C83.9283 8.56507 85.6231 9.39689 86.7234 10.8067H89.9983C89.8052 10.3825 89.5788 9.97484 89.3147 9.58357C87.7043 7.19414 85.0134 5.76794 82.1142 5.76794C77.3452 5.76794 73.465 9.60597 73.465 14.3251C73.465 19.0427 77.3452 22.8808 82.113 22.8808C85.0208 22.8808 87.7173 21.4471 89.3251 19.0472C89.5832 18.6619 89.8058 18.2587 89.9959 17.8435H86.7209C85.6207 19.2533 83.9289 20.0851 82.1133 20.0851" fill="#464648"/>
<path d="M39.8672 13.4627C39.8672 9.2946 36.4405 5.90369 32.2291 5.90369C29.6686 5.90369 27.291 7.16411 25.8693 9.27473C25.0329 10.5172 24.591 11.9658 24.591 13.4637V14.1925L24.6194 14.9287C25.1165 20.9217 30.2351 22.6391 34.4503 24.1714C36.4123 24.8852 38.2652 25.5587 39.4171 26.5966L39.8669 27.0028V23.5158L39.7353 23.4381C38.8983 22.9468 37.7335 22.5465 36.3841 22.0836C32.7243 20.8261 27.839 19.285 27.5462 14.9302H39.8673V13.4652L39.8672 13.4627ZM27.3876 12.4713L27.4671 12.1603C27.6026 11.6249 27.829 11.1204 28.139 10.6602C29.0506 9.3052 30.5779 8.49548 32.2214 8.49548C34.4701 8.49548 36.4245 10.0019 36.9754 12.1594L37.0539 12.4715H27.3859L27.3876 12.4713Z" fill="#E64280"/>
<path d="M40.8583 14.9271H53.1803C52.8882 19.2814 48.0026 20.8241 44.3418 22.0808C42.9911 22.5443 41.826 22.9447 40.9899 23.4357L40.8571 23.5134V26.9994L41.3068 26.5932C42.4583 25.5553 44.3116 24.8812 46.2736 24.1679C50.4888 22.6367 55.6065 20.9195 56.1046 14.9265L56.1333 14.1902V13.4615C56.1333 11.9636 55.6911 10.5156 54.8534 9.27369C53.4303 7.16307 51.0533 5.90265 48.4924 5.90265C44.2812 5.90265 40.8544 9.29415 40.8544 13.4622V14.9287L40.8583 14.9271ZM43.6699 12.4714L43.7492 12.1592C44.2994 10.002 46.2544 8.49548 48.5038 8.49548C50.1479 8.49548 51.6737 9.3049 52.5869 10.6602C52.8978 11.121 53.1242 11.6253 53.26 12.16L53.34 12.4721H43.672L43.6699 12.4714ZM66.8053 5.88577H62.0917V0H59.2532V5.88577H56.6879V8.69455H59.2532V22.7927L62.0917 22.7941V8.69365H66.8053" fill="#464648"/>
</g>
<defs>
<clipPath id="clip0_6_196">
<rect width="90" height="27" fill="white"/>
</clipPath>
</defs>
</svg>
