<svg width="77" height="18" viewBox="0 0 77 18" fill="none" xmlns="http://www.w3.org/2000/svg">
<g clip-path="url(#clip0_6_157)">
<path d="M26.8373 0.736837C27.7808 0.736837 28.4622 1.26315 28.4622 2.21052C28.4622 2.73684 28.2525 3.42105 27.8856 4.26315L23.8496 14.2632L19.2893 3.89473C18.9224 3.10526 18.7651 2.52631 18.7651 1.94736C18.7651 1.31578 19.2893 0.736837 20.4425 0.736837V0.263153H13.7331V0.736837C15.096 0.736837 15.5153 1.21052 16.3016 3.05263L22.7488 17.9474H23.1157L29.1436 3.21052C29.8775 1.47368 30.821 0.684206 31.5548 0.684206V0.263153H26.8897V0.736837H26.8373ZM0.681412 0.263153V0.736837C2.56841 0.736837 2.98774 1.21052 2.98774 2.78947V14.3684C2.98774 16.8421 2.62083 17.1053 0.681412 17.1053V17.5789H13.8904L15.3581 12.8947L14.9911 12.7895C13.5759 16.3158 12.58 16.8421 9.59223 16.8421H7.75765C5.45132 16.8421 5.34649 16.7895 5.34649 13.9474V3.42105C5.34649 1.26315 5.76582 0.789469 8.07215 0.789469V0.263153H0.681412ZM55.3519 0.736837V0.263153H51.0538L44.7638 13.9474L38.2117 0.263153H33.8087V0.736837C35.6433 0.736837 36.0626 1.31578 36.0626 3V14.3158C36.0626 16.7895 35.5909 17.0526 33.8087 17.0526V17.5263H39.1552V17.0526C37.3206 17.0526 36.9013 16.7895 36.9013 14.3158V3L43.5582 17.5263H43.9775L50.582 3V14.3158C50.582 16.7895 50.2151 17.0526 48.1709 17.0526V17.5263H55.3519V17.0526C53.3601 17.0526 53.0456 16.7368 53.0456 14.3158V2.73684C53.0456 1.21052 53.5173 0.736837 55.3519 0.736837ZM62.4282 3.47368C62.4282 1.05263 62.7951 0.736837 64.7345 0.736837V0.263153H57.7107V0.736837C59.7025 0.736837 60.017 1.05263 60.017 3.47368V14.3158C60.017 16.7368 59.6501 17.0526 57.7107 17.0526V17.5263H64.7345V17.0526C62.7427 17.0526 62.4282 16.7368 62.4282 14.3158V9.73684C62.4282 9.26315 62.6378 9.10526 63.162 9.10526H70.7624C71.339 9.10526 71.4962 9.31578 71.4962 9.89473V14.3158C71.4962 16.7368 71.1293 17.0526 69.1899 17.0526V17.5263H76.2137V17.0526C74.2219 17.0526 73.9074 16.7368 73.9074 14.3158V3.47368C73.9074 1.05263 74.2743 0.736837 76.2137 0.736837V0.263153H69.1899V0.736837C71.1817 0.736837 71.4962 1.05263 71.4962 3.47368V7.52631C71.4962 8.15789 71.339 8.31579 70.7624 8.31579H63.1096C62.5854 8.31579 62.3758 8.15789 62.3758 7.73684V3.47368H62.4282Z" fill="#030303"/>
</g>
<defs>
<clipPath id="clip0_6_157">
<rect width="77" height="18" fill="white"/>
</clipPath>
</defs>
</svg>
