<svg width="80" height="35" viewBox="0 0 80 35" fill="none" xmlns="http://www.w3.org/2000/svg">
<g clip-path="url(#clip0_7_224)">
<mask id="mask0_7_224" style="mask-type:luminance" maskUnits="userSpaceOnUse" x="-31" y="-51" width="411" height="537">
<path d="M-30.4463 485.132H379.524V-50.5187H-30.4463V485.132Z" fill="white"/>
</mask>
<g mask="url(#mask0_7_224)">
<mask id="mask1_7_224" style="mask-type:luminance" maskUnits="userSpaceOnUse" x="2" y="2" width="76" height="31">
<path d="M2.43048 32.9707H77.6199V2.46733H2.43048V32.9707Z" fill="white"/>
</mask>
<g mask="url(#mask1_7_224)">
<path d="M65.6693 20.8603C65.6457 20.7176 65.6457 20.5934 66.3496 20.3715C67.0509 20.1522 68.7571 19.5684 69.7933 18.9898C70.8295 18.4059 71.0022 18.324 71.2456 18.4878C71.4889 18.649 71.4183 19.0453 71.4183 19.3253V22.1627C71.7977 21.5339 73.0433 19.4416 74.0324 18.826C74.8096 18.3399 75.0843 18.3003 75.5658 18.2897C76.1441 18.2791 77.51 18.6384 77.5702 20.0941C77.6173 21.2328 76.7852 21.6898 76.2566 21.6185C75.8327 21.5577 75.5292 21.1641 75.278 20.7678C75.0241 20.3662 74.6212 20.1284 74.2182 20.2658C73.8152 20.4058 71.557 21.8853 71.4287 23.9883C71.3372 25.5364 71.4287 30.3632 71.4287 30.3632C71.4287 31.095 71.7061 31.3777 72.0306 31.5732C72.3525 31.7713 73.5378 31.7819 73.8702 31.8294C74.2077 31.877 74.1946 31.9562 74.1946 32.0619C74.1946 32.165 74.1946 32.2152 73.8963 32.2152H65.9571C65.7033 32.2152 65.6013 32.165 65.6013 32.0144C65.6013 31.8057 65.9336 31.8426 66.1874 31.8057C66.4412 31.7713 67.7836 31.8823 68.1683 31.2007C68.4509 30.7542 68.4169 30.0356 68.4169 30.0356L68.3776 21.5577C68.3776 20.8735 68.1761 20.7731 67.9903 20.6648C67.8019 20.5564 67.4905 20.4983 66.8337 20.7229C66.2136 20.9289 65.7871 21.1218 65.6693 20.8603Z" fill="#211E1E"/>
<path d="M37.903 20.8629C37.7958 20.6542 37.9946 20.5195 38.5834 20.3636C39.2402 20.1866 40.6794 19.7454 41.8203 19.0928C42.9612 18.4429 43.1575 18.3742 43.3982 18.4535C43.6416 18.5354 43.618 18.966 43.618 19.3147V30.2839C43.618 30.8995 43.6991 31.1557 43.9739 31.412C44.2513 31.6683 44.9421 31.8189 45.8396 31.8189C46.2452 31.8189 46.3708 31.8664 46.3708 32.0408C46.3708 32.2152 46.2452 32.2152 46.083 32.2152H38.204C37.9606 32.2152 37.903 32.1095 37.903 32.0064C37.903 31.877 38.0103 31.7951 38.3767 31.7951C38.6854 31.7951 40.1116 31.9034 40.436 31.1557C40.5616 30.8704 40.6218 30.4715 40.6218 30.099V21.3966C40.6218 20.7361 40.1142 20.4428 39.528 20.5855C38.8424 20.744 38.0443 21.135 37.903 20.8629Z" fill="#211E1E"/>
<path d="M41.9197 13.2754C42.99 13.2754 43.8587 12.3982 43.8587 11.3203C43.8587 10.2398 42.99 9.36534 41.9197 9.36534C40.8521 9.36534 39.986 10.2398 39.986 11.3203C39.986 12.3982 40.8521 13.2754 41.9197 13.2754Z" fill="#211E1E"/>
<path d="M51.3897 25.7161C51.7796 29.2747 53.8782 32.0434 56.4793 31.5785C59.0856 31.1135 60.3913 28.601 60.0773 24.5774C59.7554 20.4851 57.751 18.4429 55.0532 18.6886C52.2637 18.9449 50.9972 22.1548 51.3897 25.7161ZM53.9698 18.0625C57.3271 17.4284 62.1027 18.1761 63.1886 23.481C64.2719 28.786 60.6556 31.6102 57.5181 32.2997C54.4513 32.9707 49.244 32.4926 48.302 26.786C47.4541 21.6634 51.1359 18.5962 53.9698 18.0625Z" fill="#211E1E"/>
<path d="M14.2218 31.3565H16.1686C23.4118 31.3565 25.356 30.6776 27.9047 27.2589C30.4534 23.8403 30.7569 18.9317 30.7569 17.2726C30.7569 15.6134 30.32 11.4498 27.7712 7.92814C25.2199 4.40649 20.9625 3.49239 17.2389 3.49239H14.2061C13.4865 3.49239 13.4498 3.8147 13.4498 4.32195V30.7119C13.4498 31.2878 13.6513 31.3565 14.2218 31.3565ZM2.4281 31.9747C2.4281 31.7079 2.77089 31.663 3.09014 31.6524C6.77712 31.5468 7.46533 31.4173 7.88662 30.9761C8.1169 30.733 8.45446 30.5349 8.45446 28.8097V5.07489C8.45446 2.94287 5.89005 3.28104 4.07926 3.09346C3.4434 3.03006 3.39106 2.94287 3.39106 2.7553C3.39106 2.57036 3.51143 2.48054 3.84376 2.46733H18.699C35.0327 2.46733 35.8674 14.5223 35.8674 17.7375C35.8674 24.6461 31.3431 32.2442 21.8862 32.2442H2.90435C2.67146 32.2442 2.4281 32.2125 2.4281 31.9747Z" fill="#211E1E"/>
</g>
</g>
</g>
<defs>
<clipPath id="clip0_7_224">
<rect width="80" height="35" fill="white"/>
</clipPath>
</defs>
</svg>
