<svg width="145" height="20" viewBox="0 0 145 20" fill="none" xmlns="http://www.w3.org/2000/svg">
<g clip-path="url(#clip0_7_202)">
<path d="M102.729 1.72606V0.130075H93.9376V9.09814H102.719V7.49674H96.3435V5.31998H102.628V3.72308H96.3435V1.72606H102.729Z" fill="#0E224A"/>
<path d="M83.6648 4.60552C83.6648 2.52992 86.0249 1.80373 87.8544 1.80373C89.1808 1.80373 90.9006 2.21741 91.8702 2.75392V0.728898C90.8274 0.352256 89.0985 0 87.7081 0C84.1587 0 80.8381 1.67367 80.8381 4.55945C80.8381 7.33505 84.0764 9.23181 87.2507 9.23181C89.0253 9.23181 90.7085 8.8922 91.9708 8.30872V6.35596C90.7817 6.96834 89.2906 7.38202 87.6806 7.38202C85.6224 7.38202 83.6648 6.30086 83.6648 4.60552Z" fill="#0E224A"/>
<path d="M77.1973 5.7201L70.4098 0.127366L68.5802 0.130065V9.10266H70.6202V3.42502L77.4078 9.10266H79.2373V0.130075H77.1973V5.7201Z" fill="#0E224A"/>
<path d="M32.5018 9.10266H34.9076V6.05791H41.2378V4.46282H34.9076V1.72968H41.4025V0.130075H32.5018V9.10266Z" fill="#0E224A"/>
<path d="M14.124 9.10266H16.5299V0.129171H14.124V9.10266Z" fill="#0E224A"/>
<path d="M5.30563 0.130219C3.46695 3.08194 1.71978 6.08321 2.28882e-05 9.10267C2.28882e-05 9.10447 2.27779 9.10267 2.27779 9.10267L3.43973 7.06499H8.86428L10.0897 9.10267H12.9258C11.142 6.05792 9.2666 3.07562 7.3273 0.130219H5.30563ZM6.03751 2.48189L7.83949 5.46631H4.31766L6.03751 2.48189Z" fill="#0E224A"/>
<path d="M59.9173 0.130219C58.0786 3.08194 56.3314 6.08321 54.6117 9.10267C54.6117 9.10447 56.8895 9.10267 56.8895 9.10267L58.0514 7.06499H63.476L64.7018 9.10267H67.5375C65.7537 6.05792 63.8783 3.07562 61.939 0.130219H59.9173ZM60.6492 2.48189L62.4512 5.46631H58.9293L60.6492 2.48189Z" fill="#0E224A"/>
<path d="M43.305 0.128235V9.10269H45.711V5.99562H47.9613L50.852 9.10189L54.0445 9.10269L50.7423 5.60375C52.2883 5.22259 53.5416 4.16947 53.5416 2.88057C53.5416 1.10845 51.9133 0.128235 49.9465 0.128235H43.305ZM45.711 1.7297H49.0043C49.9465 1.7297 50.8156 2.16592 50.8156 3.00321C50.8156 3.84411 49.9462 4.39615 48.4735 4.39615H45.711V1.7297Z" fill="#0E224A"/>
<path d="M19.6766 0.128235V9.10269H22.0919V5.99562H24.3421L27.2235 9.10189L30.416 9.10269L27.1139 5.60375C28.6598 5.22259 29.9221 4.16947 29.9221 2.88057C29.9221 1.10845 28.2848 0.128235 26.3181 0.128235H19.6766ZM22.0919 1.7297H25.3758C26.318 1.7297 27.1871 2.16592 27.1871 3.00321C27.1871 3.84411 26.3178 4.39615 24.845 4.39615H22.0919V1.7297Z" fill="#0E224A"/>
<path d="M106.818 16.1107V19.8735H105.994V18.7626C105.473 19.3605 104.631 20 102.893 20C99.8928 20 98.484 18.2279 98.484 16.0159C98.484 13.3957 100.277 12.002 102.884 12.002C104.714 12.002 106.131 12.8194 106.699 14.0984L105.921 14.5066C105.308 13.1446 103.89 12.7779 102.847 12.7779C100.679 12.7779 99.4445 13.962 99.4445 16.1315C99.4445 17.8819 100.643 19.1826 102.93 19.1826C104.339 19.1826 105.839 18.5115 105.967 16.9281H102.838V16.1107H106.818Z" fill="#0E224A"/>
<path d="M109.589 15.6185H112.901C114.245 15.6185 115.261 15.4297 115.261 14.3079C115.261 13.1969 114.245 13.0082 112.901 13.0082H109.589V15.6185ZM108.656 12.1898H113.111C114.346 12.1898 116.148 12.4527 116.148 14.3187C116.148 15.912 114.657 16.3727 113.715 16.4142L116.267 19.8112H115.105L112.626 16.4359H109.589V19.8112H108.656V12.1898Z" fill="#0E224A"/>
<path d="M121.884 19.1826C123.759 19.1826 125.451 18.1972 125.451 15.8804C125.451 14.1815 124.125 12.7779 121.884 12.7779C119.643 12.7779 118.316 14.1815 118.316 15.8804C118.316 18.1972 119.981 19.1826 121.884 19.1826ZM121.884 12.0011C124.5 12.0011 126.403 13.5113 126.403 16.0475C126.403 18.7527 124.107 20 121.884 20C119.652 20 117.356 18.7527 117.356 16.0475C117.356 13.5113 119.258 12.0011 121.884 12.0011Z" fill="#0E224A"/>
<path d="M135.66 16.6771C135.66 19.4337 133.483 20 131.69 20C129.897 20 127.72 19.4337 127.72 16.6771V12.1899H128.653V16.6771C128.653 18.4275 129.787 19.2241 131.69 19.2241C133.593 19.2241 134.727 18.4275 134.727 16.6771V12.1899H135.66V16.6771Z" fill="#0E224A"/>
<path d="M138.432 15.744H141.771C143.326 15.744 144.113 15.4189 144.113 14.3811C144.113 13.3324 143.326 13.0082 141.771 13.0082H138.432V15.744ZM137.499 12.1908H142.018C143.582 12.1908 145 12.6306 145 14.3711C145 16.1216 143.582 16.5614 142.018 16.5614H138.432V19.8112H137.499V12.1908Z" fill="#0E224A"/>
<path d="M144.744 0.129146V9.10083H141.917V3.25971L137.975 7.34768L134.059 3.31751V9.10083H131.727V0.120114H134.709L138.231 3.91454L141.78 0.129146H144.744Z" fill="#05A1E6"/>
<path d="M122.853 0.129141H120.018V9.09811H129.513V7.11103H122.853V0.129141Z" fill="#05A1E6"/>
<path d="M117.749 0.129147H113.998L109.169 3.65261V0.129147H106.333V9.10083H109.169V5.3606L113.669 9.10083H118.051L112.105 4.19635L117.749 0.129147Z" fill="#05A1E6"/>
</g>
<defs>
<clipPath id="clip0_7_202">
<rect width="145" height="20" fill="white"/>
</clipPath>
</defs>
</svg>
