<svg width="70" height="24" viewBox="0 0 70 24" fill="none" xmlns="http://www.w3.org/2000/svg">
<g clip-path="url(#clip0_6_83)">
<path d="M29.7886 12.3078C29.7886 15.6391 27.2176 18.0939 24.0625 18.0939C20.9074 18.0939 18.3364 15.6391 18.3364 12.3078C18.3364 8.95305 20.9074 6.52174 24.0625 6.52174C27.2176 6.52174 29.7886 8.95305 29.7886 12.3078ZM27.282 12.3078C27.282 10.2261 25.7919 8.80174 24.0625 8.80174C22.3331 8.80174 20.843 10.2261 20.843 12.3078C20.843 14.3687 22.3331 15.8139 24.0625 15.8139C25.7919 15.8139 27.282 14.3661 27.282 12.3078Z" fill="#EA4335"/>
<path d="M42.1415 12.3078C42.1415 15.6391 39.5706 18.0939 36.4154 18.0939C33.2603 18.0939 30.6893 15.6391 30.6893 12.3078C30.6893 8.95566 33.2603 6.52174 36.4154 6.52174C39.5706 6.52174 42.1415 8.95305 42.1415 12.3078ZM39.6349 12.3078C39.6349 10.2261 38.1448 8.80174 36.4154 8.80174C34.686 8.80174 33.196 10.2261 33.196 12.3078C33.196 14.3687 34.686 15.8139 36.4154 15.8139C38.1448 15.8139 39.6349 14.3661 39.6349 12.3078Z" fill="#FBBC05"/>
<path d="M53.9798 6.87131V17.2591C53.9798 21.5322 51.4938 23.2774 48.5548 23.2774C45.7882 23.2774 44.1232 21.4017 43.4952 19.8678L45.6776 18.947C46.0662 19.8887 47.0184 21 48.5522 21C50.4335 21 51.5993 19.8235 51.5993 17.6087V16.7765H51.5118C50.9507 17.4783 49.8699 18.0913 48.5059 18.0913C45.6518 18.0913 43.0371 15.5713 43.0371 12.3287C43.0371 9.06261 45.6518 6.52174 48.5059 6.52174C49.8673 6.52174 50.9482 7.13479 51.5118 7.81566H51.5993V6.87392H53.9798V6.87131ZM51.7768 12.3287C51.7768 10.2913 50.436 8.80174 48.7298 8.80174C47.0004 8.80174 45.5515 10.2913 45.5515 12.3287C45.5515 14.3452 47.0004 15.8139 48.7298 15.8139C50.436 15.8139 51.7768 14.3452 51.7768 12.3287Z" fill="#4285F4"/>
<path d="M57.9044 0.782608V17.7391H55.4596V0.782608H57.9044Z" fill="#34A853"/>
<path d="M67.4316 14.2122L69.3772 15.527C68.7492 16.4687 67.236 18.0913 64.6213 18.0913C61.3787 18.0913 58.957 15.5504 58.957 12.3052C58.957 8.86435 61.3992 6.51913 64.3408 6.51913C67.3029 6.51913 68.7518 8.9087 69.2254 10.2L69.4853 10.8574L61.8548 14.0609C62.439 15.2217 63.3474 15.8139 64.6213 15.8139C65.8978 15.8139 66.7831 15.1774 67.4316 14.2122ZM61.443 12.1304L66.5437 9.98348C66.2632 9.26087 65.4191 8.7574 64.4257 8.7574C63.1518 8.7574 61.3787 9.8974 61.443 12.1304Z" fill="#EA4335"/>
<path d="M9.08199 10.8026V8.34782H17.2427C17.3224 8.77565 17.3636 9.28173 17.3636 9.82956C17.3636 11.6713 16.8669 13.9487 15.2662 15.5713C13.7092 17.2148 11.7199 18.0913 9.08456 18.0913C4.2 18.0913 0.0926514 14.0583 0.0926514 9.10695C0.0926514 4.15565 4.2 0.122604 9.08456 0.122604C11.7868 0.122604 13.7118 1.19739 15.1581 2.59826L13.4493 4.33043C12.4121 3.34434 11.007 2.57739 9.08199 2.57739C5.51508 2.57739 2.72537 5.4913 2.72537 9.10695C2.72537 12.7226 5.51508 15.6365 9.08199 15.6365C11.3956 15.6365 12.7132 14.6948 13.5574 13.8391C14.2419 13.1452 14.6923 12.1539 14.8699 10.8L9.08199 10.8026Z" fill="#4285F4"/>
</g>
<defs>
<clipPath id="clip0_6_83">
<rect width="70" height="24" fill="white"/>
</clipPath>
</defs>
</svg>
