<svg width="138" height="20" viewBox="0 0 138 20" fill="none" xmlns="http://www.w3.org/2000/svg">
<g clip-path="url(#clip0_6_167)">
<path d="M9.23841 0.675985L0.698408 8.65367C0.271324 9.00298 0 9.41375 0 10.0024C0 10.5911 0.272999 11.0002 0.698408 11.3512L9.23841 19.3256C9.29368 19.379 9.3456 19.4016 9.39082 19.4016C9.47121 19.4016 9.52816 19.3305 9.52481 19.2464C9.52313 19.1979 9.49968 19.1413 9.44944 19.0911C7.44466 16.6863 5.98587 13.9274 5.98587 10.0283C5.98587 6.12921 7.44633 3.31688 9.45111 0.908862C9.50136 0.860346 9.52313 0.805361 9.52648 0.755228C9.52983 0.669516 9.47289 0.601593 9.3925 0.601593C9.34727 0.601593 9.29368 0.622617 9.24008 0.675985" fill="#E52629"/>
<path d="M15.8054 0C12.4608 0 11.1544 4.57508 11.1544 10.0299C11.1544 15.4848 12.4608 20 15.8054 20C17.8119 20 19.5219 18.8647 19.5286 17.9332C19.5286 17.7294 19.4482 17.5338 19.2707 17.3623C18.3194 16.4745 17.9476 15.5883 17.9442 14.8055C17.9375 13.3112 19.2807 12.1986 20.5168 12.1986C22.2184 12.1986 23.2216 13.4891 23.2216 15.1613C23.2216 16.7462 22.5232 18.0642 21.7628 19.1219C21.7327 19.1655 21.7193 19.214 21.7193 19.2561C21.7193 19.3386 21.7712 19.4065 21.8466 19.4065C21.8918 19.4065 21.9471 19.3822 22.0057 19.3256L30.5474 11.3512C30.9745 10.9986 31.2458 10.5862 31.2458 10.0024C31.2458 9.41861 30.9728 9.00461 30.5474 8.65368L22.004 0.675993C21.9454 0.61939 21.8918 0.595132 21.8449 0.595132C21.7679 0.595132 21.7193 0.663055 21.7176 0.74715C21.7176 0.789197 21.731 0.837713 21.7612 0.881378C22.5215 1.9358 23.22 3.25706 23.22 4.8403C23.22 6.51088 22.2167 7.80302 20.5151 7.80302C19.2774 7.80302 17.9358 6.69039 17.9425 5.1977C17.9459 4.41498 18.3177 3.52713 19.269 2.6409C19.4465 2.46948 19.5286 2.27541 19.5269 2.07164C19.5219 1.1369 17.8102 0.00161721 15.8038 0.00161721" fill="#0E5CA8"/>
<path d="M59.5422 12.391C58.2676 12.391 57.3364 13.012 57.3364 14.1991C57.3364 15.3117 58.1453 16.088 59.3613 16.088C60.1719 16.088 60.9808 15.6529 61.4866 15.0319V13.4471C61.4866 12.9182 60.7782 12.391 59.5422 12.391ZM87.1 12.1711C87.1602 14.2573 88.537 15.7661 90.9069 15.7661C92.3456 15.7661 93.4392 15.0141 93.8228 14.5403C94.0053 14.6729 94.1879 14.8702 94.1879 15.3311C94.1879 16.3694 92.8915 17.8038 89.8735 17.8038C86.8554 17.8038 84.3649 15.4653 84.3649 12.4104C84.3649 9.04503 86.6528 6.64025 90.0359 6.64025C93.111 6.64025 94.5295 8.82671 94.5295 10.6897C94.5295 11.2396 94.4073 11.7474 94.1644 12.1711H87.0983H87.1ZM91.3926 10.824C91.8783 10.824 91.8984 10.549 91.8984 10.1819C91.8783 9.08546 90.9856 8.06824 89.629 8.06824C87.867 8.06824 87.1787 9.493 87.1184 10.824H91.3909H91.3926ZM119.962 11.9738C119.962 14.5225 120.329 15.8211 122.03 15.8211C123.889 15.8211 124.399 14.2185 124.399 12.7614V9.9814C124.399 9.02725 123.93 8.65529 122.858 8.76688C122.412 7.69305 123.889 7.01059 124.722 6.85372C124.983 6.81491 125.226 6.77609 125.452 6.77609C126.624 6.77609 127.075 7.48281 127.075 8.53723C127.075 8.92536 127.036 9.63208 127.036 12.5576C127.036 13.7948 127.016 14.4481 127.016 14.6519C127.016 15.6157 127.479 16.1058 128.549 15.9926C128.988 17.068 127.521 17.5774 126.683 17.7278C126.427 17.765 126.192 17.8022 126 17.8022C124.886 17.8022 124.662 17.1052 124.437 16.1058C124.28 16.2934 124.136 16.447 123.833 16.7284C123.104 17.3882 122.153 17.7844 121.077 17.7844C119.903 17.7844 118.91 17.3494 118.282 16.6346C117.311 15.5219 117.311 14.0875 117.311 11.9932V9.9814C117.311 9.02725 116.845 8.65529 115.772 8.76688C115.326 7.69305 116.805 7.01059 117.634 6.85372C117.897 6.81491 118.138 6.77609 118.362 6.77609C119.535 6.77609 119.982 7.48281 119.982 8.53723L119.962 11.9722V11.9738ZM114.84 12.1937C114.84 8.88817 112.472 6.64025 109.191 6.64025C106.155 6.64025 103.461 8.88655 103.461 12.1937C103.461 15.5009 105.992 17.786 109.091 17.786C112.37 17.786 114.84 15.5042 114.84 12.1937ZM64.0173 15.1063C64.0173 15.9489 64.5834 16.219 65.5766 16.3516C65.5163 17.3316 64.8062 17.71 63.9771 17.786C63.0459 17.8604 62.1348 17.4448 61.7697 16.5052C61.3426 16.8788 60.0882 17.8232 58.4485 17.8232C56.2009 17.8232 54.521 16.3694 54.521 14.3899C54.521 12.2972 56.4035 11.0568 59.0565 11.0568C59.9692 11.0568 60.9189 11.2396 61.4866 11.5242V10.1221C61.4866 8.86714 60.9189 8.06986 59.4417 8.06986C59.1369 8.06986 58.4703 8.14749 57.9427 8.34155C58.003 8.54047 58.0449 8.75232 58.0449 8.948C58.0449 9.71456 57.5391 10.3356 56.6882 10.3356C55.9379 10.3356 55.3701 9.75175 55.3701 9.00622C55.3701 7.63806 57.1538 6.64025 59.6242 6.64025C61.5888 6.64025 62.7846 7.08983 63.411 7.87094C63.9771 8.55826 64.0173 9.61429 64.0173 11.1377V15.1079V15.1063ZM111.945 12.3538C111.945 14.8945 110.811 16.2756 109.211 16.2756C107.794 16.2756 106.418 14.8961 106.418 11.8832C106.418 9.53505 107.429 8.06986 109.091 8.06986C110.73 8.06986 111.946 9.69354 111.946 12.3555M72.0348 8.49842C72.0951 9.16471 72.6829 9.63208 73.3713 9.63208C74.2422 9.63208 74.7681 8.88655 74.7681 8.16366C74.7681 7.14643 73.9173 6.61922 73.0665 6.61922C72.0951 6.61922 71.0617 7.32433 70.4755 8.37875L70.4353 8.39815C70.2528 7.46179 69.7872 6.75507 68.8157 6.75507C68.593 6.75507 68.3501 6.7955 68.0872 6.87313C67.2766 7.10762 66.0824 7.71246 66.5279 8.78628C67.6618 8.57605 68.0671 8.94477 68.0671 9.89892V14.4465C68.0671 15.3489 67.9465 15.7273 67.6216 15.9926C67.3168 16.2173 66.9935 16.3111 66.7909 16.3483C66.3253 17.3284 67.2364 17.6324 69.484 17.6324C71.7316 17.6324 72.5004 17.3284 72.0348 16.3483C71.8321 16.3095 71.266 16.2157 70.9612 15.9926C70.6363 15.7273 70.4956 15.3489 70.4956 14.4465V11.7037C70.4956 9.25851 71.4268 8.61486 72.0331 8.49842M99.8974 6.91194H102.793C103.138 7.71246 102.673 8.35772 102.024 8.41756C101.822 8.43858 101.599 8.43858 101.396 8.43858C100.869 8.43858 100.343 8.39815 99.9795 8.39815V14.4465C99.9795 15.3489 100.142 15.7273 100.465 15.9926C100.77 16.2173 101.478 16.3111 101.681 16.3483C102.147 17.3284 101.051 17.6324 98.8054 17.6324C96.5594 17.6324 95.6266 17.3284 96.0922 16.3483C96.2948 16.3095 96.6197 16.2157 96.9229 15.9926C97.2461 15.7273 97.3684 15.3489 97.3684 14.4465V8.3561L95.6684 8.29789C95.3234 7.49899 95.789 6.93135 96.4774 6.93135H97.3299V6.14862C97.3299 4.56537 97.633 3.68399 98.0383 3.09695C98.6647 2.15897 99.7383 1.5137 101.418 1.5137C103.545 1.5137 105.265 2.47109 105.265 3.91849C105.265 4.54435 104.82 5.30605 103.889 5.30605C103.2 5.30605 102.552 4.73841 102.552 4.03655C102.552 3.74221 102.674 3.42848 102.835 3.23441C102.592 2.9611 102.086 2.82202 101.601 2.82202C100.204 2.82202 99.9007 3.81984 99.9007 5.06994V6.9087L99.8974 6.91194ZM81.2481 8.49842C81.3084 9.16471 81.8962 9.63208 82.5846 9.63208C83.4555 9.63208 83.9814 8.88655 83.9814 8.16366C83.9814 7.14643 83.1306 6.61922 82.2814 6.61922C81.31 6.61922 80.2767 7.32433 79.6905 8.37875L79.6486 8.39815C79.4677 7.46179 79.0004 6.75507 78.029 6.75507C77.8063 6.75507 77.5634 6.7955 77.3005 6.87313C76.4899 7.10762 75.294 7.71246 75.7412 8.78628C76.8751 8.57605 77.2787 8.94477 77.2787 9.89892V14.4465C77.2787 15.3489 77.1581 15.7273 76.8332 15.9926C76.53 16.2173 76.2068 16.3111 76.0041 16.3483C75.5385 17.3284 76.4497 17.6324 78.6956 17.6324C80.9416 17.6324 81.7137 17.3284 81.2464 16.3483C81.0437 16.3095 80.4776 16.2157 80.1728 15.9926C79.8496 15.7273 79.7072 15.3489 79.7072 14.4465V11.7037C79.7072 9.25851 80.6384 8.61486 81.2447 8.49842M135.139 8.49842C135.208 9.16471 135.799 9.63208 136.491 9.63208C137.35 9.63208 137.876 8.88655 137.876 8.16366C137.876 7.14643 137.039 6.61922 136.176 6.61922C135.208 6.61922 134.186 7.32433 133.602 8.37875L133.543 8.39815C133.366 7.46179 132.895 6.75507 131.942 6.75507C131.704 6.75507 131.475 6.7955 131.197 6.87313C130.398 7.10762 129.207 7.71246 129.641 8.78628C130.778 8.57605 131.177 8.94477 131.177 9.89892V14.4465C131.177 15.3489 131.061 15.7273 130.726 15.9926C130.435 16.2173 130.101 16.3111 129.909 16.3483C129.438 17.3284 130.358 17.6324 132.604 17.6324C134.85 17.6324 135.61 17.3284 135.141 16.3483C134.948 16.3095 134.382 16.2157 134.066 15.9926C133.758 15.7273 133.62 15.3489 133.62 14.4465V11.7037C133.62 9.25851 134.536 8.61486 135.141 8.49842" fill="#0E5CA8"/>
<path d="M39.5262 10.0315C39.5262 14.9656 43.0484 17.8879 46.8754 17.8879C50.3172 17.8879 52.7273 15.5511 52.7273 13.6056C52.7273 12.5689 52.059 11.8169 51.1881 11.8169C50.3172 11.8169 49.5484 12.4007 49.5484 13.4034C49.5484 14.0438 49.9119 14.4012 50.1765 14.6842C49.7109 15.5543 48.7177 16.2691 47.1785 16.2691C44.6277 16.2691 42.7854 13.7042 42.7854 10.0137C42.7854 6.32327 44.5457 3.73897 47.0981 3.73897C48.6373 3.73897 49.6288 4.46186 50.0944 5.32383C49.8315 5.61655 49.4663 5.9691 49.4663 6.61437C49.4663 7.61218 50.215 8.19761 51.106 8.19761C51.997 8.19761 52.6435 7.43752 52.6435 6.39928C52.6435 4.46186 50.2351 2.11691 46.7916 2.11691C42.9629 2.11691 39.5228 5.32383 39.5228 10.0348" fill="#0E5CA8"/>
</g>
<defs>
<clipPath id="clip0_6_167">
<rect width="138" height="20" fill="white"/>
</clipPath>
</defs>
</svg>
