<svg width="127" height="28" viewBox="0 0 127 28" fill="none" xmlns="http://www.w3.org/2000/svg">
<path d="M7.74925 20.4475L22.0443 20.4475C22.5987 20.4475 23.0482 19.9978 23.0482 19.4431V18.6156C23.0482 18.0609 22.5987 17.6111 22.0443 17.6111H7.74925C7.19478 17.6111 6.7453 18.0609 6.7453 18.6156V19.4431C6.7453 19.9978 7.19478 20.4475 7.74925 20.4475Z" fill="#CC5744"/>
<path d="M11.9144 15.6612L22.043 15.6612C22.5975 15.6612 23.047 15.2115 23.047 14.6567V13.8293C23.047 13.2745 22.5975 12.8248 22.043 12.8248L11.9144 12.8248C11.3599 12.8248 10.9104 13.2745 10.9104 13.8293V14.6567C10.9104 15.2115 11.3599 15.6612 11.9144 15.6612Z" fill="#F2D249"/>
<path d="M15.9013 10.6978H22.0443C22.5987 10.6978 23.0482 10.2481 23.0482 9.6933V8.86586C23.0482 8.31109 22.5987 7.86137 22.0443 7.86137L15.9013 7.86137C15.3469 7.86137 14.8974 8.31109 14.8974 8.86586V9.6933C14.8974 10.2481 15.3469 10.6978 15.9013 10.6978Z" fill="#26A334"/>
<path d="M31.9784 16.2174H30.7561V20.1713H27.6376V7.58258H32.3335C35.0266 7.58258 36.9229 9.26635 36.9229 11.9973C36.9229 13.735 36.126 14.9932 34.8321 15.6674L37.6495 20.1713H34.3527L31.9784 16.2174ZM32.0311 13.558C33.0062 13.558 33.7679 13.2391 33.7679 11.9973C33.7679 10.7555 33.0062 10.4366 32.0311 10.4366H30.7548V13.5568H32.0311V13.558Z" fill="#384239"/>
<path d="M38.6773 7.58258H41.7958V20.1713H38.6773V7.58258Z" fill="#384239"/>
<path d="M45.7125 10.4378H42.9127V7.58383H51.632V10.4378H48.8323V20.1713H45.7137V10.4378H45.7125Z" fill="#384239"/>
<path d="M52.7464 7.58258H56.1661L59.6925 16.1998L63.2189 7.58258H66.6574V20.1713H63.5389V13.5404H63.4498L60.8445 20.1713H58.558L55.9528 13.5404H55.8637V20.1713H52.7452V7.58258H52.7464Z" fill="#384239"/>
<path d="M68.0391 13.8769C68.0391 10.0298 70.9983 7.40555 74.5962 7.40555C78.1941 7.40555 81.1357 10.0298 81.1357 13.8769C81.1357 17.7241 78.1765 20.3483 74.5962 20.3483C71.0158 20.3483 68.0391 17.7241 68.0391 13.8769ZM74.5962 17.3876C76.4397 17.3876 77.9281 16.0228 77.9281 13.8769C77.9281 11.7311 76.4397 10.3663 74.5962 10.3663C72.7527 10.3663 71.2468 11.7311 71.2468 13.8769C71.2468 16.0228 72.7351 17.3876 74.5962 17.3876Z" fill="#384239"/>
<path d="M82.5287 7.58258H87.6852C90.9819 7.58258 93.6926 10.2068 93.6926 13.8769C93.6926 17.5471 90.9807 20.1713 87.6852 20.1713H82.5287V7.58258ZM87.5798 17.2281C89.4936 17.2281 90.4323 15.8269 90.4323 13.8769C90.4323 11.927 89.4936 10.5257 87.5798 10.5257H85.6485V17.2281H87.5798Z" fill="#384239"/>
<path d="M94.8974 7.58258H97.9632V10.2244H94.8974V7.58258ZM94.8974 10.9514H97.9632V20.1713H94.8974V10.9514Z" fill="#384239"/>
<path d="M99.0788 15.5607C99.0788 12.3338 101.383 10.7731 103.438 10.7731C105.051 10.7731 105.92 11.6595 105.99 11.819H106.042V10.9501H109.108V20.17H106.042V19.3011H105.99C105.92 19.4606 105.051 20.3471 103.438 20.3471C101.383 20.3471 99.0788 18.7863 99.0788 15.5594V15.5607ZM104.094 17.635C105.192 17.635 106.114 16.8728 106.114 15.5607C106.114 14.2486 105.193 13.4864 104.094 13.4864C102.994 13.4864 102.091 14.2662 102.091 15.5607C102.091 16.8552 103.029 17.635 104.094 17.635Z" fill="#384239"/>
<path d="M112.582 23.3279V20.8983C113.025 21.182 113.946 21.3239 114.673 21.3239C116.392 21.3239 117.189 20.4902 117.189 19.6037V19.3024H117.082C117.011 19.4619 116.179 20.3483 114.619 20.3483C112.546 20.3483 110.224 18.77 110.224 15.5607C110.224 12.3514 112.546 10.7731 114.619 10.7731C116.179 10.7731 117.011 11.6595 117.082 11.819H117.189V10.9501H120.255V19.3363C120.255 23.078 117.296 23.8577 115.258 23.8577C114.319 23.8577 113.202 23.7334 112.582 23.3254V23.3279ZM115.258 17.6362C116.356 17.6362 117.26 16.8741 117.26 15.562C117.26 14.2498 116.357 13.4877 115.258 13.4877C114.158 13.4877 113.237 14.2674 113.237 15.562C113.237 16.8565 114.176 17.6362 115.258 17.6362Z" fill="#384239"/>
</svg>
