<svg width="129" height="97" viewBox="0 0 129 97" fill="none" xmlns="http://www.w3.org/2000/svg">
<path fill-rule="evenodd" clip-rule="evenodd" d="M27.5415 33.7776C30.6375 33.7776 33.368 34.0362 35.045 34.4242C38.356 35.114 40.979 37.7438 41.667 41.0633C42.054 42.7231 42.312 45.4822 42.312 48.5862C42.312 51.6902 42.054 54.4278 41.667 56.1091C40.979 59.4287 38.356 62.0584 35.045 62.7482C33.3895 63.1362 30.6375 63.3949 27.5415 63.3949C24.4455 63.3949 21.715 63.1362 20.038 62.7482C16.727 62.0584 14.104 59.4287 13.416 56.1091C13.029 54.4493 12.771 51.6902 12.771 48.5862C12.771 45.4822 13.029 42.7447 13.416 41.0633C14.104 37.7438 16.727 35.114 20.038 34.4242C21.715 34.0362 24.4455 33.7776 27.5415 33.7776ZM29.4765 55.1822C30.2075 55.3331 30.788 55.8289 31.0675 56.4971C31.1535 56.7127 31.39 56.8636 31.6265 56.842C31.691 56.842 31.7555 56.8204 31.82 56.8204C32.981 56.7127 33.884 56.5402 34.4215 56.3462C34.787 56.2169 35.0235 55.872 35.0235 55.4624V55.4409V55.4193V55.3978V55.3762V55.3547C34.9375 54.1476 34.2065 51.3238 33.11 48.0904C31.863 44.4044 30.5515 41.4082 29.971 40.8262C29.885 40.7184 29.7775 40.6538 29.6485 40.5891C29.6055 40.5676 29.541 40.546 29.4765 40.5029C29.0895 40.3736 28.38 40.2873 27.563 40.2873C26.746 40.2873 26.0365 40.3736 25.6495 40.5029C25.585 40.5244 25.5205 40.546 25.4775 40.5891C25.3485 40.6538 25.241 40.74 25.155 40.8262C24.5745 41.4082 23.263 44.4044 22.016 48.0904C20.9195 51.3238 20.1885 54.1476 20.1025 55.3547V55.3762V55.3978C20.1025 55.4193 20.1025 55.4409 20.1025 55.4409V55.4624C20.1025 55.872 20.3605 56.2169 20.7045 56.3462C21.242 56.5402 22.145 56.6911 23.306 56.8204C23.349 56.8204 23.4135 56.8204 23.4565 56.842C23.7145 56.8636 23.9295 56.7342 24.037 56.4971C24.3165 55.8289 24.9185 55.3331 25.628 55.1822C26.058 55.0744 26.7675 55.0098 27.5845 55.0098C28.337 55.0098 29.0465 55.0744 29.4765 55.1822Z" fill="#1DAE87"/>
<path d="M59.942 43.65H62.7585V56.0013H59.942V53.8242C59.0605 55.3547 57.5555 56.2384 55.5775 56.2384C52.3095 56.2384 49.6865 53.3716 49.6865 49.8149C49.6865 46.2582 52.3095 43.4129 55.5775 43.4129C57.534 43.4129 59.0605 44.2967 59.942 45.8271V43.65ZM102.189 43.65H105.006V56.0013H102.189V53.8242C101.308 55.3547 99.803 56.2384 97.825 56.2384C94.557 56.2384 91.934 53.3716 91.934 49.8149C91.934 46.2582 94.557 43.4129 97.825 43.4129C99.7815 43.4129 101.308 44.2967 102.189 45.8271V43.65ZM56.244 53.5656C58.394 53.5656 60.0065 51.9489 60.0065 49.8149C60.0065 47.7024 58.394 46.0858 56.244 46.0858C54.1585 46.0858 52.4815 47.7456 52.4815 49.8149C52.503 51.8842 54.1585 53.5656 56.244 53.5656ZM98.341 53.5656C100.491 53.5656 102.103 51.9489 102.103 49.8149C102.103 47.7024 100.491 46.0858 98.341 46.0858C96.2555 46.0858 94.5785 47.7456 94.5785 49.8149C94.6 51.8842 96.2555 53.5656 98.341 53.5656ZM66.994 37.4851C67.983 37.4851 68.8 38.3258 68.8 39.2742C68.8 40.2873 67.9615 41.0849 66.994 41.0849C66.005 41.0849 65.2095 40.2873 65.2095 39.2742C65.188 38.3042 66.005 37.4851 66.994 37.4851ZM65.5965 43.6069H68.3915V55.9582H65.5965V43.6069ZM77.185 43.3698C77.7225 43.3698 78.2385 43.456 78.6255 43.5853C78.8405 43.6716 79.034 43.7578 79.1845 43.844L78.045 46.2367C77.6795 46.1289 77.2925 46.0642 76.9055 46.0642C75.551 46.0642 74.0245 47.2067 74.0245 49.3622V55.9367H71.2295V43.5853H74.0245V45.3529C74.5835 44.1889 75.981 43.3698 77.185 43.3698ZM91.2245 52.8327C90.3 54.8804 88.1285 56.2169 85.5485 56.2169C81.8935 56.2169 79.0985 53.4578 79.0985 49.8149C79.0985 46.1504 81.872 43.3913 85.527 43.3913C87.9135 43.3913 89.9345 44.5769 90.8375 46.3876L88.4725 47.724C87.978 46.7324 86.86 46.0858 85.527 46.0858C83.42 46.0858 81.872 47.7024 81.872 49.8149C81.872 51.9058 83.4415 53.5224 85.5485 53.5224C86.989 53.5224 88.1715 52.8327 88.7305 51.7118L91.2245 52.8327ZM110.639 37.4851V55.9582H107.844V37.4851H110.639ZM116.272 37.4851V55.9582H113.477V37.4851H116.272Z" fill="#010202"/>
</svg>
